<svg fill="none" height="512" viewBox="0 0 97 96" width="512" xmlns="http://www.w3.org/2000/svg"><g clip-rule="evenodd" fill="rgb(0,0,0)" fill-rule="evenodd"><path d="m52.8263 5.40015c1.4359 0 2.6 1.16406 2.6 2.6v3.87845c0 1.4359-1.1641 2.6-2.6 2.6s-2.6-1.1641-2.6-2.6v-3.87845c0-1.43594 1.1641-2.6 2.6-2.6zm-18.7178 5.01425c1.2436-.71797 2.8337-.2919 3.5517.9517l1.9392 3.3588c.718 1.2435.2919 2.8337-.9517 3.5516-1.2435.718-2.8337.2919-3.5516-.9516l-1.9392-3.3588c-.718-1.2436-.2919-2.8337.9516-3.5517zm-10.1504 12.751c-1.2436-.718-2.8337-.2919-3.5517.9516-.718 1.2436-.2919 2.8337.9517 3.5517l3.3588 1.9392c1.2435.718 2.8337.2919 3.5516-.9517.718-1.2435.2919-2.8336-.9516-3.5516z"/><path d="m56.1811 24.0442c2.4347-4.6402 6.6041-5.7136 10.5814-3.6268 3.0263 1.5879 5.111 6.6718 3.5232 9.6981l-7.2543 13.8259c1.8132-.3368 3.7332.4164 4.9325 1.7912.6231.7143 1.0517 1.5965 1.1697 2.5809.0416.3474.0446.7075.0037 1.0775.5501-.0019 1.0874.0589 1.6008.1768 2.6453.6076 4.6584 2.7322 4.5399 5.6212-.0073.1771-.0225.357-.0462.5397.1274.0109.2539.0273.3794.049 3.5862.621 6.3633 5.56 4.7297 8.6735l-6.4487 12.2906c-5.3976 10.2873-19.0669 14.5557-30.0513 8.7923-8.6763-4.5523-13.0263-10.7348-15.5322-17.8071-1.6155-4.5593-2.9289-8.6667-4.414-13.3112-.7321-2.2894-1.5059-4.7093-2.3782-7.3781-1.7151-5.2476.7772-9.3167 4.8711-10.8951 3.9139-1.5089 8.4439 1.1697 10.1327 5.3165l3.7994 7.7197c.5341 1.3501 1.352 2.519 2.0965 1.1zm-20.6094 27.2632-3.717-7.552c-.054-.1099-.1042-.2216-.1504-.335-.394-.9676-1.1292-1.7518-1.9053-2.175-.7544-.4113-1.2658-.3569-1.5408-.2509-.9798.3778-1.544.9573-1.8188 1.5156-.2523.5128-.4672 1.422.0198 2.9121.8975 2.746 1.6823 5.2005 2.4183 7.5025 1.469 4.5944 2.7437 8.5813 4.3326 13.0655 2.1247 5.9963 5.6718 11.0697 13.0468 14.9392 8.5453 4.4837 19.0213 1.0378 23.0306-6.6036l6.3193-12.044c-.0281-.1466-.1023-.3802-.261-.651-.1856-.3169-.4062-.5465-.5765-.6721-.0387-.0286-.0686-.0475-.0893-.0594-1.371-.1462-2.6296-.8315-3.4967-1.9073-.89-1.1042-1.2904-2.5239-1.1085-3.9304.0128-.0992.0077-.1537.004-.175 0 0-.0102-.0124-.0211-.0231-.0792-.0778-.3705-.2744-.9026-.2725-1.4816.0051-2.895-.6221-3.8854-1.7241-.9316-1.0366-1.4057-2.4007-1.3232-3.7847-.0141-.0067-.0269-.0118-.0375-.0153-1.9348.3314-3.8942-.4554-5.0621-2.0383-1.1823-1.6026-1.3455-3.7397-.4202-5.5032l7.2008-13.724c.003-.0307.0057-.0786.0042-.1456-.0052-.2527-.0685-.6344-.2392-1.0843-.1691-.4458-.4021-.8478-.6441-1.1512-.2263-.2835-.3827-.3855-.401-.3974-.9913-.5201-1.5885-.4516-1.8754-.3601-.2816.0897-.9659.4245-1.6862 1.7974l-13.7649 26.2346c-.3952.7531-1.3763 2.355-3.3968 3.0885-2.4447.8875-4.4967-.1089-5.5294-.9129-.9363-.7289-1.5084-1.6042-1.8066-2.1103-.294-.4988-.5303-1.0036-.7164-1.4527zm2.2572-3.4778c-.0076.0141-.0155.0296-.0155.0296l-.0019.0036z"/></g></svg>