<svg clip-rule="evenodd" fill-rule="evenodd" stroke-linejoin="round" stroke-miterlimit="2" viewBox="0 0 32 32" xmlns="http://www.w3.org/2000/svg" xmlns:serif="http://www.serif.com/"><g transform="translate(-156)"><g id="Artboard"><g transform="matrix(1.083 0 0 1.054 -10 -3)"><path d="m0 0h240v240h-240z" fill="#222"/></g><g transform="matrix(1.641 0 0 1.641 156 0)"><path d="m0 0h19.5v19.5h-19.5z" fill="#fff"/></g></g><g transform="matrix(.995 0 0 .995 .964 -.152)"><g id="Icon"><path d="m176.038 3.366c-.071-.39-.364-.702-.749-.797-2.205-.542-4.509-.542-6.714 0-.385.095-.678.407-.749.797l-.54 2.969c-.56.263-1.098.573-1.606.927 0 0-2.841-1.017-2.841-1.017-.374-.134-.79-.036-1.065.25-1.571 1.639-2.723 3.634-3.357 5.815-.11.38.013.791.315 1.047l2.302 1.952c-.052.617-.052 1.237 0 1.854 0 0-2.302 1.952-2.302 1.952-.302.257-.425.667-.315 1.048.634 2.18 1.786 4.175 3.357 5.814.275.286.691.384 1.065.251l2.841-1.018c.508.354 1.045.664 1.606.927 0 0 .54 2.97.54 2.97.071.39.364.702.749.796 2.205.542 4.509.542 6.714 0 .385-.094.678-.406.749-.796l.54-2.97c.56-.263 1.097-.573 1.606-.927-.001 0 2.841 1.018 2.841 1.018.373.133.79.035 1.064-.251 1.572-1.639 2.724-3.634 3.357-5.814.111-.381-.012-.791-.315-1.048l-2.301-1.952c.052-.616.052-1.237 0-1.854-.001 0 2.301-1.952 2.301-1.952.303-.256.426-.667.315-1.047-.633-2.181-1.785-4.176-3.357-5.815-.274-.286-.691-.384-1.064-.25l-2.842 1.017c-.507-.354-1.045-.664-1.605-.927 0 0-.54-2.969-.54-2.969zm-1.858 1.019.515 2.835c.062.338.292.622.61.751.751.307 1.457.715 2.098 1.212.271.21.632.268.955.152l2.714-.971c.986 1.145 1.749 2.466 2.248 3.893 0 0-2.198 1.865-2.198 1.865-.262.222-.393.562-.346.903.11.804.11 1.619 0 2.423-.047.34.084.681.346.903l2.198 1.864c-.499 1.427-1.262 2.748-2.248 3.894 0 0-2.714-.972-2.714-.972-.323-.115-.684-.058-.955.153-.641.497-1.347.904-2.098 1.211-.318.13-.548.413-.61.751l-.515 2.836c-1.486.281-3.011.281-4.496 0 0 0-.516-2.836-.516-2.836-.061-.338-.291-.621-.609-.751-.751-.307-1.457-.714-2.098-1.211-.272-.211-.632-.268-.955-.153l-2.714.972c-.987-1.146-1.749-2.467-2.248-3.894 0 0 2.198-1.864 2.198-1.864.262-.222.393-.563.346-.903-.11-.804-.11-1.619 0-2.423.047-.341-.084-.681-.346-.903l-2.198-1.865c.499-1.427 1.261-2.748 2.248-3.893 0 0 2.714.971 2.714.971.323.116.683.058.955-.152.641-.497 1.347-.905 2.098-1.212.318-.129.548-.413.609-.751l.516-2.835c1.485-.282 3.01-.282 4.496 0zm-2.248 5.749c-3.368 0-6.102 2.735-6.102 6.102 0 3.368 2.734 6.102 6.102 6.102s6.102-2.734 6.102-6.102c0-3.367-2.734-6.102-6.102-6.102zm0 2.011c2.258 0 4.091 1.833 4.091 4.091s-1.833 4.092-4.091 4.092-4.091-1.834-4.091-4.092 1.833-4.091 4.091-4.091z" fill="#060000"/></g></g></g></svg>